TITLE ""
FILE "Step3_Track14.mp3" MP3
  TRACK 01 AUDIO
    TITLE "Step3_Track14_01"
    INDEX 01 00:00:00
  TRACK 02 AUDIO
    TITLE "Step3_Track14_02"
    INDEX 01 00:00:22
  TRACK 03 AUDIO
    TITLE "Step3_Track14_03"
    INDEX 01 00:01:67
  TRACK 04 AUDIO
    TITLE "Step3_Track14_04"
    INDEX 01 00:02:41
  TRACK 05 AUDIO
    TITLE "Step3_Track14_05"
    INDEX 01 00:03:38
  TRACK 06 AUDIO
    TITLE "Step3_Track14_06"
    INDEX 01 00:03:75
  TRACK 07 AUDIO
    TITLE "Step3_Track14_07"
    INDEX 01 00:06:64
  TRACK 08 AUDIO
    TITLE "Step3_Track14_08"
    INDEX 01 00:07:18
  TRACK 09 AUDIO
    TITLE "Step3_Track14_09"
    INDEX 01 00:08:12
  TRACK 10 AUDIO
    TITLE "Step3_Track14_10"
    INDEX 01 00:08:25
  TRACK 11 AUDIO
    TITLE "Step3_Track14_11"
    INDEX 01 00:11:41
  TRACK 12 AUDIO
    TITLE "Step3_Track14_12"
    INDEX 01 00:11:57
  TRACK 13 AUDIO
    TITLE "Step3_Track14_13"
    INDEX 01 00:12:55
  TRACK 14 AUDIO
    TITLE "Step3_Track14_14"
    INDEX 01 00:12:72
  TRACK 15 AUDIO
    TITLE "Step3_Track14_15"
    INDEX 01 00:15:37
  TRACK 16 AUDIO
    TITLE "Step3_Track14_16"
    INDEX 01 00:15:73
  TRACK 17 AUDIO
    TITLE "Step3_Track14_17"
    INDEX 01 00:16:64
  TRACK 18 AUDIO
    TITLE "Step3_Track14_18"
    INDEX 01 00:17:05
  TRACK 19 AUDIO
    TITLE "Step3_Track14_19"
    INDEX 01 00:19:35
  TRACK 20 AUDIO
    TITLE "Step3_Track14_20"
    INDEX 01 00:19:70
  TRACK 21 AUDIO
    TITLE "Step3_Track14_21"
    INDEX 01 00:20:62
  TRACK 22 AUDIO
    TITLE "Step3_Track14_22"
    INDEX 01 00:21:09
  TRACK 23 AUDIO
    TITLE "Step3_Track14_23"
    INDEX 01 00:23:13
  TRACK 24 AUDIO
    TITLE "Step3_Track14_24"
    INDEX 01 00:23:31
  TRACK 25 AUDIO
    TITLE "Step3_Track14_25"
    INDEX 01 00:24:34
  TRACK 26 AUDIO
    TITLE "Step3_Track14_26"
    INDEX 01 00:24:42
  TRACK 27 AUDIO
    TITLE "Step3_Track14_27"
    INDEX 01 00:27:07
  TRACK 28 AUDIO
    TITLE "Step3_Track14_28"
    INDEX 01 00:27:39
  TRACK 29 AUDIO
    TITLE "Step3_Track14_29"
    INDEX 01 00:28:44
  TRACK 30 AUDIO
    TITLE "Step3_Track14_30"
    INDEX 01 00:28:50
  TRACK 31 AUDIO
    TITLE "Step3_Track14_31"
    INDEX 01 00:31:07
  TRACK 32 AUDIO
    TITLE "Step3_Track14_32"
    INDEX 01 00:31:34
  TRACK 33 AUDIO
    TITLE "Step3_Track14_33"
    INDEX 01 00:32:26
  TRACK 34 AUDIO
    TITLE "Step3_Track14_34"
    INDEX 01 00:32:42
  TRACK 35 AUDIO
    TITLE "Step3_Track14_35"
    INDEX 01 00:34:74
  TRACK 36 AUDIO
    TITLE "Step3_Track14_36"
    INDEX 01 00:35:28
  TRACK 37 AUDIO
    TITLE "Step3_Track14_37"
    INDEX 01 00:36:34
  TRACK 38 AUDIO
    TITLE "Step3_Track14_38"
    INDEX 01 00:36:36
  TRACK 39 AUDIO
    TITLE "Step3_Track14_39"
    INDEX 01 00:38:70
  TRACK 40 AUDIO
    TITLE "Step3_Track14_40"
    INDEX 01 00:39:06
  TRACK 41 AUDIO
    TITLE "Step3_Track14_41"
    INDEX 01 00:39:75
  TRACK 42 AUDIO
    TITLE "Step3_Track14_42"
    INDEX 01 00:40:22
  TRACK 43 AUDIO
    TITLE "Step3_Track14_43"
    INDEX 01 00:42:69
